<?xml version="1.0"?>
<svg xmlns="http://www.w3.org/2000/svg" version="1.1" viewBox="0 0 636 653.9" fill="currentColor">
  <circle cx="318" cy="325.9" r="295.9" opacity="0.55"></circle>
  <path d="M432.8,598.7c-179.2-41.8-363.7-9.3-419.3-163C-42.2,282.1,100.1,185.1,217.2,47.7c85.9-100.8,313.9-22.5,377.4,87.1,23.4,40.3,35.5,78.8,9.6,115.7-97.2,138.7,7.8,390-171.4,348.1Z" opacity="0.7"></path>
  <path d="M206.3,600C398,395.7-20.1,316.6,63.4,175,151.1,26.4,500-13.3,604.2,250.5c37.9,95.9,53.7,204.9-30.5,224.5-70.6,16.4-90.6,81.2-140.8,123.7-73.6,62.2-301.3,81-226.5,1.3Z" opacity="0.85"></path>
  <path d="M256.3,483c-18.9-143.3-148-429.4,59.8-425.2,55.6,1.1,125.2,12.2,189.6,92.7,222.5,277.9-225.1,516.3-249.4,332.5Z"></path>
</svg>