<?xml version="1.0"?>
<svg id="Vrstva_1" xmlns="http://www.w3.org/2000/svg" version="1.1" viewBox="0 0 815.7 165.8" fill="#6b6840">
  
  <defs></defs>
  <path class="st1" d="M450.6,90.7c9.3,0,16.6-7.2,16.6-16.3s-7.3-16.3-16.6-16.3-16.6,7.2-16.6,16.3,7.3,16.3,16.6,16.3h0ZM441.1,74.4c0-5.9,4.1-10.4,9.5-10.4s9.5,4.5,9.5,10.4-4.1,10.4-9.5,10.4-9.5-4.5-9.5-10.4h0ZM532.6,58.3v32.3h7.1v-11.3h9.2c5.9,0,10.4-4.5,10.4-10.5s-4.4-10.5-10.4-10.5h-16.3ZM539.7,73.4v-9.4h7.9c2.4,0,4.5,2,4.5,4.7s-2,4.7-4.5,4.7h-7.9ZM648.6,58.3h-26.1v5.8h9.5v26.5h7.1v-26.5h9.5v-5.8h0ZM712.9,58.3v32.3h7.1v-32.3h-7.1ZM802.2,84.8c-5.5,0-9.6-4.5-9.6-10.4s4.1-10.4,9.6-10.4,6.5,1.8,8.1,4.6l5.4-4c-3-4-7.9-6.6-13.6-6.6-9.5,0-16.8,7.2-16.8,16.3s7.3,16.3,16.8,16.3,10.5-2.5,13.6-6.6l-5.4-4c-1.7,2.8-4.6,4.6-8.1,4.6Z"></path>
  <path class="st0" d="M400.8,158.7c1.3,2.3.4,5.2-1.9,6.5-2.3,1.3-5.2.4-6.5-1.9l-15-27.7h-104.4l-13.5,24.9c-.9,1.6-2.2,3-3.8,3.9l-.4.2c-1.5.8-3.2,1.3-4.9,1.3h-73.4c-5,0-9.7-2.1-13-5.4-3.3-3.3-5.4-7.9-5.4-13V62.8c0-.2,0-.4-.2-.5h0c-.1-.1-.3-.2-.5-.2h-14.2l.2,1.4c.3,2.9.5,5.8.5,8.7-.2,20-8.3,38.1-21.3,51.1-13,13-31,21.1-50.9,21.1s-38-8.1-51.1-21.2C8.1,110.3,0,92.2,0,72.3S8.1,34.2,21.2,21.2C34.2,8.1,52.3,0,72.3,0h174.2c2.6,0,5,.6,7.1,1.9,2.1,1.2,3.9,2.9,5.2,5.2,1.3,2.2,2,4.6,2,7h0c0,2.5-.5,4.9-1.7,7.1-18.7,31.2-34.8,66.2-53.1,98-.4.7-.5,1.5-.5,2.2,0,.8.3,1.6.7,2.3h0c.5.8,1,1.3,1.7,1.7.7.4,1.5.6,2.4.6h57l45.3-83.6c1.2-2.2,2.9-4,5-5.3l.3-.2c2.2-1.3,4.7-2,7.3-2s4.9.6,7.1,1.8h.3c2.1,1.4,3.8,3.2,5.1,5.4l45.5,83.9h36.5c2.6,0,4.8,2.1,4.8,4.8s-2.1,4.8-4.8,4.8h-31.3l12.5,23.1h0ZM372.2,125.9l-42.9-79.2c-.4-.7-1-1.3-1.6-1.7h-.2c-.6-.5-1.4-.6-2.3-.6s-1.8.2-2.5.6h-.1c-.6.5-1.2,1.1-1.6,1.8l-42.8,79h94ZM251.1,155.8l11-20.3h-51.8c-2.6,0-5-.6-7.1-1.9-2.1-1.2-3.9-3-5.2-5.2h0c-1.3-2.2-2-4.6-2-7h0c0-2.3.5-4.7,1.6-6.8l53.2-98.1c.4-.8.6-1.6.6-2.3h0c0-.8-.3-1.6-.7-2.4-.4-.7-1-1.3-1.7-1.7-.7-.4-1.5-.6-2.4-.6H72.3c-17.3,0-33,7-44.3,18.4-11.3,11.3-18.4,27-18.4,44.3s7,33,18.4,44.3c11.3,11.3,27,18.4,44.3,18.4s32.8-7,44.1-18.3c11.4-11.4,18.4-27.1,18.6-44.4,0-2.4-.1-4.9-.4-7.6,0-.8-.2-1.7-.3-2.5h-17.3c-6,0-11.7,0-17.9-1.9h0c-6.7-2.1-10.9-5.7-12.9-9.9-1.4-2.9-1.7-6-1.2-9,.6-2.9,2-5.6,4.1-8.1,4-4.6,10.9-8.2,19.5-8.6,7.3-.4,15.3,1.9,21.9,7.9h0c4.9,4.4,9,10.9,11.6,20h16.1c2.8,0,5.4,1.1,7.2,3h0c1.9,1.9,3,4.4,3,7.3v84.5c0,2.4,1,4.6,2.6,6.2h0c1.6,1.6,3.8,2.6,6.2,2.6h73.4c.1,0,.2,0,.3,0h0c0,0,.2-.2.2-.3h0ZM117.7,52.6h14.2c-2-5.8-4.8-10-8-12.9-4.5-4.1-10-5.7-15-5.4-5.8.3-10.2,2.4-12.7,5.3-1,1.2-1.7,2.4-1.9,3.6-.2,1,0,2.1.4,3,.9,1.9,3.2,3.7,7.1,4.9,4.9,1.5,9.8,1.5,15.1,1.5h0s.8,0,.8,0Z"></path>
</svg>